<mxfile host="app.diagrams.net" modified="2021-05-16T14:07:15.724Z" agent="5.0 (X11; Linux x86_64) AppleWebKit/537.36 (KHTML, like Gecko) Chrome/90.0.4430.93 Safari/537.36" etag="JfqeqVLpEJmthgfHfB4T" version="14.6.9" type="github">
  <diagram id="R2lEEEUBdFMjLlhIrx00" name="Page-1">
    <mxGraphModel dx="3694" dy="1666" grid="1" gridSize="10" guides="1" tooltips="1" connect="1" arrows="1" fold="1" page="1" pageScale="1" pageWidth="850" pageHeight="1100" math="0" shadow="0" extFonts="Permanent Marker^https://fonts.googleapis.com/css?family=Permanent+Marker">
      <root>
        <mxCell id="0" />
        <mxCell id="1" parent="0" />
        <mxCell id="C-vyLk0tnHw3VtMMgP7b-2" value="Version" style="shape=table;startSize=30;container=1;collapsible=1;childLayout=tableLayout;fixedRows=1;rowLines=0;fontStyle=1;align=center;resizeLast=1;" parent="1" vertex="1">
          <mxGeometry x="405" y="70" width="250" height="90" as="geometry" />
        </mxCell>
        <mxCell id="C-vyLk0tnHw3VtMMgP7b-3" value="" style="shape=partialRectangle;collapsible=0;dropTarget=0;pointerEvents=0;fillColor=none;points=[[0,0.5],[1,0.5]];portConstraint=eastwest;top=0;left=0;right=0;bottom=1;" parent="C-vyLk0tnHw3VtMMgP7b-2" vertex="1">
          <mxGeometry y="30" width="250" height="30" as="geometry" />
        </mxCell>
        <mxCell id="C-vyLk0tnHw3VtMMgP7b-4" value="PK" style="shape=partialRectangle;overflow=hidden;connectable=0;fillColor=none;top=0;left=0;bottom=0;right=0;fontStyle=1;" parent="C-vyLk0tnHw3VtMMgP7b-3" vertex="1">
          <mxGeometry width="30" height="30" as="geometry" />
        </mxCell>
        <mxCell id="C-vyLk0tnHw3VtMMgP7b-5" value="version_id char(32) NOT NULL" style="shape=partialRectangle;overflow=hidden;connectable=0;fillColor=none;top=0;left=0;bottom=0;right=0;align=left;spacingLeft=6;fontStyle=5;" parent="C-vyLk0tnHw3VtMMgP7b-3" vertex="1">
          <mxGeometry x="30" width="220" height="30" as="geometry" />
        </mxCell>
        <mxCell id="C-vyLk0tnHw3VtMMgP7b-6" value="" style="shape=partialRectangle;collapsible=0;dropTarget=0;pointerEvents=0;fillColor=none;points=[[0,0.5],[1,0.5]];portConstraint=eastwest;top=0;left=0;right=0;bottom=0;" parent="C-vyLk0tnHw3VtMMgP7b-2" vertex="1">
          <mxGeometry y="60" width="250" height="30" as="geometry" />
        </mxCell>
        <mxCell id="C-vyLk0tnHw3VtMMgP7b-7" value="FK1" style="shape=partialRectangle;overflow=hidden;connectable=0;fillColor=none;top=0;left=0;bottom=0;right=0;" parent="C-vyLk0tnHw3VtMMgP7b-6" vertex="1">
          <mxGeometry width="30" height="30" as="geometry" />
        </mxCell>
        <mxCell id="C-vyLk0tnHw3VtMMgP7b-8" value="project_id char(32) NOT NULL" style="shape=partialRectangle;overflow=hidden;connectable=0;fillColor=none;top=0;left=0;bottom=0;right=0;align=left;spacingLeft=6;" parent="C-vyLk0tnHw3VtMMgP7b-6" vertex="1">
          <mxGeometry x="30" width="220" height="30" as="geometry" />
        </mxCell>
        <mxCell id="C-vyLk0tnHw3VtMMgP7b-23" value="Project" style="shape=table;startSize=30;container=1;collapsible=1;childLayout=tableLayout;fixedRows=1;rowLines=0;fontStyle=1;align=center;resizeLast=1;" parent="1" vertex="1">
          <mxGeometry x="30" y="60" width="250" height="310" as="geometry" />
        </mxCell>
        <mxCell id="C-vyLk0tnHw3VtMMgP7b-24" value="" style="shape=partialRectangle;collapsible=0;dropTarget=0;pointerEvents=0;fillColor=none;points=[[0,0.5],[1,0.5]];portConstraint=eastwest;top=0;left=0;right=0;bottom=1;" parent="C-vyLk0tnHw3VtMMgP7b-23" vertex="1">
          <mxGeometry y="30" width="250" height="30" as="geometry" />
        </mxCell>
        <mxCell id="C-vyLk0tnHw3VtMMgP7b-25" value="PK" style="shape=partialRectangle;overflow=hidden;connectable=0;fillColor=none;top=0;left=0;bottom=0;right=0;fontStyle=1;" parent="C-vyLk0tnHw3VtMMgP7b-24" vertex="1">
          <mxGeometry width="30" height="30" as="geometry" />
        </mxCell>
        <mxCell id="C-vyLk0tnHw3VtMMgP7b-26" value="project_id char(32) NOT NULL " style="shape=partialRectangle;overflow=hidden;connectable=0;fillColor=none;top=0;left=0;bottom=0;right=0;align=left;spacingLeft=6;fontStyle=5;" parent="C-vyLk0tnHw3VtMMgP7b-24" vertex="1">
          <mxGeometry x="30" width="220" height="30" as="geometry" />
        </mxCell>
        <mxCell id="C-vyLk0tnHw3VtMMgP7b-27" value="" style="shape=partialRectangle;collapsible=0;dropTarget=0;pointerEvents=0;fillColor=none;points=[[0,0.5],[1,0.5]];portConstraint=eastwest;top=0;left=0;right=0;bottom=0;" parent="C-vyLk0tnHw3VtMMgP7b-23" vertex="1">
          <mxGeometry y="60" width="250" height="30" as="geometry" />
        </mxCell>
        <mxCell id="C-vyLk0tnHw3VtMMgP7b-28" value="" style="shape=partialRectangle;overflow=hidden;connectable=0;fillColor=none;top=0;left=0;bottom=0;right=0;" parent="C-vyLk0tnHw3VtMMgP7b-27" vertex="1">
          <mxGeometry width="30" height="30" as="geometry" />
        </mxCell>
        <mxCell id="C-vyLk0tnHw3VtMMgP7b-29" value="project_name varchar(250) NOT NULL" style="shape=partialRectangle;overflow=hidden;connectable=0;fillColor=none;top=0;left=0;bottom=0;right=0;align=left;spacingLeft=6;" parent="C-vyLk0tnHw3VtMMgP7b-27" vertex="1">
          <mxGeometry x="30" width="220" height="30" as="geometry" />
        </mxCell>
        <mxCell id="E_0I6TQ6m_T47jUmdcO8-1" value="Label" style="shape=table;startSize=30;container=1;collapsible=1;childLayout=tableLayout;fixedRows=1;rowLines=0;fontStyle=1;align=center;resizeLast=1;" vertex="1" parent="1">
          <mxGeometry x="980" y="190" width="250" height="130" as="geometry" />
        </mxCell>
        <mxCell id="E_0I6TQ6m_T47jUmdcO8-2" value="" style="shape=partialRectangle;collapsible=0;dropTarget=0;pointerEvents=0;fillColor=none;points=[[0,0.5],[1,0.5]];portConstraint=eastwest;top=0;left=0;right=0;bottom=1;" vertex="1" parent="E_0I6TQ6m_T47jUmdcO8-1">
          <mxGeometry y="30" width="250" height="30" as="geometry" />
        </mxCell>
        <mxCell id="E_0I6TQ6m_T47jUmdcO8-3" value="PK" style="shape=partialRectangle;overflow=hidden;connectable=0;fillColor=none;top=0;left=0;bottom=0;right=0;fontStyle=1;" vertex="1" parent="E_0I6TQ6m_T47jUmdcO8-2">
          <mxGeometry width="30" height="30" as="geometry" />
        </mxCell>
        <mxCell id="E_0I6TQ6m_T47jUmdcO8-4" value="label_id int NOT NULL" style="shape=partialRectangle;overflow=hidden;connectable=0;fillColor=none;top=0;left=0;bottom=0;right=0;align=left;spacingLeft=6;fontStyle=5;" vertex="1" parent="E_0I6TQ6m_T47jUmdcO8-2">
          <mxGeometry x="30" width="220" height="30" as="geometry" />
        </mxCell>
        <mxCell id="E_0I6TQ6m_T47jUmdcO8-5" value="" style="shape=partialRectangle;collapsible=0;dropTarget=0;pointerEvents=0;fillColor=none;points=[[0,0.5],[1,0.5]];portConstraint=eastwest;top=0;left=0;right=0;bottom=0;" vertex="1" parent="E_0I6TQ6m_T47jUmdcO8-1">
          <mxGeometry y="60" width="250" height="30" as="geometry" />
        </mxCell>
        <mxCell id="E_0I6TQ6m_T47jUmdcO8-6" value="FK1" style="shape=partialRectangle;overflow=hidden;connectable=0;fillColor=none;top=0;left=0;bottom=0;right=0;" vertex="1" parent="E_0I6TQ6m_T47jUmdcO8-5">
          <mxGeometry width="30" height="30" as="geometry" />
        </mxCell>
        <mxCell id="E_0I6TQ6m_T47jUmdcO8-7" value="version_id char(32) NOT NULL" style="shape=partialRectangle;overflow=hidden;connectable=0;fillColor=none;top=0;left=0;bottom=0;right=0;align=left;spacingLeft=6;" vertex="1" parent="E_0I6TQ6m_T47jUmdcO8-5">
          <mxGeometry x="30" width="220" height="30" as="geometry" />
        </mxCell>
        <mxCell id="E_0I6TQ6m_T47jUmdcO8-8" value="" style="shape=partialRectangle;collapsible=0;dropTarget=0;pointerEvents=0;fillColor=none;points=[[0,0.5],[1,0.5]];portConstraint=eastwest;top=0;left=0;right=0;bottom=0;" vertex="1" parent="E_0I6TQ6m_T47jUmdcO8-1">
          <mxGeometry y="90" width="250" height="30" as="geometry" />
        </mxCell>
        <mxCell id="E_0I6TQ6m_T47jUmdcO8-9" value="" style="shape=partialRectangle;overflow=hidden;connectable=0;fillColor=none;top=0;left=0;bottom=0;right=0;" vertex="1" parent="E_0I6TQ6m_T47jUmdcO8-8">
          <mxGeometry width="30" height="30" as="geometry" />
        </mxCell>
        <mxCell id="E_0I6TQ6m_T47jUmdcO8-10" value="label_name varchar(50) NOT NULL" style="shape=partialRectangle;overflow=hidden;connectable=0;fillColor=none;top=0;left=0;bottom=0;right=0;align=left;spacingLeft=6;" vertex="1" parent="E_0I6TQ6m_T47jUmdcO8-8">
          <mxGeometry x="30" width="220" height="30" as="geometry" />
        </mxCell>
        <mxCell id="E_0I6TQ6m_T47jUmdcO8-11" value="Image_Annotation" style="shape=table;startSize=30;container=1;collapsible=1;childLayout=tableLayout;fixedRows=1;rowLines=0;fontStyle=1;align=center;resizeLast=1;" vertex="1" parent="1">
          <mxGeometry x="45" y="1150" width="250" height="160" as="geometry" />
        </mxCell>
        <mxCell id="E_0I6TQ6m_T47jUmdcO8-12" value="" style="shape=partialRectangle;collapsible=0;dropTarget=0;pointerEvents=0;fillColor=none;points=[[0,0.5],[1,0.5]];portConstraint=eastwest;top=0;left=0;right=0;bottom=1;" vertex="1" parent="E_0I6TQ6m_T47jUmdcO8-11">
          <mxGeometry y="30" width="250" height="60" as="geometry" />
        </mxCell>
        <mxCell id="E_0I6TQ6m_T47jUmdcO8-13" value="" style="shape=partialRectangle;overflow=hidden;connectable=0;fillColor=none;top=0;left=0;bottom=0;right=0;fontStyle=1;" vertex="1" parent="E_0I6TQ6m_T47jUmdcO8-12">
          <mxGeometry width="30" height="60" as="geometry" />
        </mxCell>
        <mxCell id="E_0I6TQ6m_T47jUmdcO8-14" value="" style="shape=partialRectangle;overflow=hidden;connectable=0;fillColor=none;top=0;left=0;bottom=0;right=0;align=left;spacingLeft=6;fontStyle=5;" vertex="1" parent="E_0I6TQ6m_T47jUmdcO8-12">
          <mxGeometry x="30" width="220" height="60" as="geometry" />
        </mxCell>
        <mxCell id="E_0I6TQ6m_T47jUmdcO8-15" value="" style="shape=partialRectangle;collapsible=0;dropTarget=0;pointerEvents=0;fillColor=none;points=[[0,0.5],[1,0.5]];portConstraint=eastwest;top=0;left=0;right=0;bottom=0;" vertex="1" parent="E_0I6TQ6m_T47jUmdcO8-11">
          <mxGeometry y="90" width="250" height="30" as="geometry" />
        </mxCell>
        <mxCell id="E_0I6TQ6m_T47jUmdcO8-16" value="FK1" style="shape=partialRectangle;overflow=hidden;connectable=0;fillColor=none;top=0;left=0;bottom=0;right=0;" vertex="1" parent="E_0I6TQ6m_T47jUmdcO8-15">
          <mxGeometry width="30" height="30" as="geometry" />
        </mxCell>
        <mxCell id="E_0I6TQ6m_T47jUmdcO8-17" value="order_id int NOT NULL" style="shape=partialRectangle;overflow=hidden;connectable=0;fillColor=none;top=0;left=0;bottom=0;right=0;align=left;spacingLeft=6;" vertex="1" parent="E_0I6TQ6m_T47jUmdcO8-15">
          <mxGeometry x="30" width="220" height="30" as="geometry" />
        </mxCell>
        <mxCell id="E_0I6TQ6m_T47jUmdcO8-18" value="" style="shape=partialRectangle;collapsible=0;dropTarget=0;pointerEvents=0;fillColor=none;points=[[0,0.5],[1,0.5]];portConstraint=eastwest;top=0;left=0;right=0;bottom=0;" vertex="1" parent="E_0I6TQ6m_T47jUmdcO8-11">
          <mxGeometry y="120" width="250" height="30" as="geometry" />
        </mxCell>
        <mxCell id="E_0I6TQ6m_T47jUmdcO8-19" value="" style="shape=partialRectangle;overflow=hidden;connectable=0;fillColor=none;top=0;left=0;bottom=0;right=0;" vertex="1" parent="E_0I6TQ6m_T47jUmdcO8-18">
          <mxGeometry width="30" height="30" as="geometry" />
        </mxCell>
        <mxCell id="E_0I6TQ6m_T47jUmdcO8-20" value="shipment_date date NOT NULL" style="shape=partialRectangle;overflow=hidden;connectable=0;fillColor=none;top=0;left=0;bottom=0;right=0;align=left;spacingLeft=6;" vertex="1" parent="E_0I6TQ6m_T47jUmdcO8-18">
          <mxGeometry x="30" width="220" height="30" as="geometry" />
        </mxCell>
        <mxCell id="E_0I6TQ6m_T47jUmdcO8-28" value="anno_type int NOT NULL" style="shape=partialRectangle;overflow=hidden;connectable=0;fillColor=none;top=0;left=0;bottom=0;right=0;align=left;spacingLeft=6;" vertex="1" parent="1">
          <mxGeometry x="60" y="150" width="220" height="30" as="geometry" />
        </mxCell>
        <mxCell id="E_0I6TQ6m_T47jUmdcO8-29" value="project_path varchar(250) NOT NULL" style="shape=partialRectangle;overflow=hidden;connectable=0;fillColor=none;top=0;left=0;bottom=0;right=0;align=left;spacingLeft=6;" vertex="1" parent="1">
          <mxGeometry x="60" y="180" width="220" height="30" as="geometry" />
        </mxCell>
        <mxCell id="E_0I6TQ6m_T47jUmdcO8-30" value="is_new boolean NOT NULL" style="shape=partialRectangle;overflow=hidden;connectable=0;fillColor=none;top=0;left=0;bottom=0;right=0;align=left;spacingLeft=6;" vertex="1" parent="1">
          <mxGeometry x="60" y="210" width="220" height="30" as="geometry" />
        </mxCell>
        <mxCell id="E_0I6TQ6m_T47jUmdcO8-31" value="is_starred boolean NOT NULL" style="shape=partialRectangle;overflow=hidden;connectable=0;fillColor=none;top=0;left=0;bottom=0;right=0;align=left;spacingLeft=6;" vertex="1" parent="1">
          <mxGeometry x="60" y="240" width="220" height="30" as="geometry" />
        </mxCell>
        <mxCell id="E_0I6TQ6m_T47jUmdcO8-32" value="project_infra boolean NOT NULL" style="shape=partialRectangle;overflow=hidden;connectable=0;fillColor=none;top=0;left=0;bottom=0;right=0;align=left;spacingLeft=6;" vertex="1" parent="1">
          <mxGeometry x="60" y="270" width="220" height="30" as="geometry" />
        </mxCell>
        <mxCell id="E_0I6TQ6m_T47jUmdcO8-34" value="current_version_id char(32) NOT NULL" style="shape=partialRectangle;overflow=hidden;connectable=0;fillColor=none;top=0;left=0;bottom=0;right=0;align=left;spacingLeft=6;" vertex="1" parent="1">
          <mxGeometry x="60" y="300" width="220" height="30" as="geometry" />
        </mxCell>
        <mxCell id="E_0I6TQ6m_T47jUmdcO8-44" style="edgeStyle=orthogonalEdgeStyle;orthogonalLoop=1;jettySize=auto;html=1;entryX=1;entryY=0.5;entryDx=0;entryDy=0;endArrow=ERmandOne;endFill=0;startArrow=ERzeroToMany;startFill=1;rounded=0;" edge="1" parent="1" source="E_0I6TQ6m_T47jUmdcO8-5" target="C-vyLk0tnHw3VtMMgP7b-3">
          <mxGeometry relative="1" as="geometry" />
        </mxCell>
        <mxCell id="E_0I6TQ6m_T47jUmdcO8-45" value="" style="group" vertex="1" connectable="0" parent="1">
          <mxGeometry x="30" y="580" width="250" height="240" as="geometry" />
        </mxCell>
        <mxCell id="C-vyLk0tnHw3VtMMgP7b-13" value="Image" style="shape=table;startSize=30;container=1;collapsible=1;childLayout=tableLayout;fixedRows=1;rowLines=0;fontStyle=1;align=center;resizeLast=1;" parent="E_0I6TQ6m_T47jUmdcO8-45" vertex="1">
          <mxGeometry width="250" height="240" as="geometry" />
        </mxCell>
        <mxCell id="C-vyLk0tnHw3VtMMgP7b-14" value="" style="shape=partialRectangle;collapsible=0;dropTarget=0;pointerEvents=0;fillColor=none;points=[[0,0.5],[1,0.5]];portConstraint=eastwest;top=0;left=0;right=0;bottom=1;" parent="C-vyLk0tnHw3VtMMgP7b-13" vertex="1">
          <mxGeometry y="30" width="250" height="30" as="geometry" />
        </mxCell>
        <mxCell id="C-vyLk0tnHw3VtMMgP7b-15" value="PK, FK1" style="shape=partialRectangle;overflow=hidden;connectable=0;fillColor=none;top=0;left=0;bottom=0;right=0;fontStyle=1;" parent="C-vyLk0tnHw3VtMMgP7b-14" vertex="1">
          <mxGeometry width="60" height="30" as="geometry" />
        </mxCell>
        <mxCell id="C-vyLk0tnHw3VtMMgP7b-16" value="data_id char(32) NOT NULL" style="shape=partialRectangle;overflow=hidden;connectable=0;fillColor=none;top=0;left=0;bottom=0;right=0;align=left;spacingLeft=6;fontStyle=5;" parent="C-vyLk0tnHw3VtMMgP7b-14" vertex="1">
          <mxGeometry x="60" width="190" height="30" as="geometry" />
        </mxCell>
        <mxCell id="C-vyLk0tnHw3VtMMgP7b-17" value="" style="shape=partialRectangle;collapsible=0;dropTarget=0;pointerEvents=0;fillColor=none;points=[[0,0.5],[1,0.5]];portConstraint=eastwest;top=0;left=0;right=0;bottom=0;" parent="C-vyLk0tnHw3VtMMgP7b-13" vertex="1">
          <mxGeometry y="60" width="250" height="30" as="geometry" />
        </mxCell>
        <mxCell id="C-vyLk0tnHw3VtMMgP7b-18" value="FK1" style="shape=partialRectangle;overflow=hidden;connectable=0;fillColor=none;top=0;left=0;bottom=0;right=0;" parent="C-vyLk0tnHw3VtMMgP7b-17" vertex="1">
          <mxGeometry width="60" height="30" as="geometry" />
        </mxCell>
        <mxCell id="C-vyLk0tnHw3VtMMgP7b-19" value="project_id char(32) NOT NULL" style="shape=partialRectangle;overflow=hidden;connectable=0;fillColor=none;top=0;left=0;bottom=0;right=0;align=left;spacingLeft=6;" parent="C-vyLk0tnHw3VtMMgP7b-17" vertex="1">
          <mxGeometry x="60" width="190" height="30" as="geometry" />
        </mxCell>
        <mxCell id="C-vyLk0tnHw3VtMMgP7b-20" value="" style="shape=partialRectangle;collapsible=0;dropTarget=0;pointerEvents=0;fillColor=none;points=[[0,0.5],[1,0.5]];portConstraint=eastwest;top=0;left=0;right=0;bottom=0;" parent="C-vyLk0tnHw3VtMMgP7b-13" vertex="1">
          <mxGeometry y="90" width="250" height="30" as="geometry" />
        </mxCell>
        <mxCell id="C-vyLk0tnHw3VtMMgP7b-21" value="" style="shape=partialRectangle;overflow=hidden;connectable=0;fillColor=none;top=0;left=0;bottom=0;right=0;" parent="C-vyLk0tnHw3VtMMgP7b-20" vertex="1">
          <mxGeometry width="60" height="30" as="geometry" />
        </mxCell>
        <mxCell id="C-vyLk0tnHw3VtMMgP7b-22" value="depth int NOT NULL" style="shape=partialRectangle;overflow=hidden;connectable=0;fillColor=none;top=0;left=0;bottom=0;right=0;align=left;spacingLeft=6;" parent="C-vyLk0tnHw3VtMMgP7b-20" vertex="1">
          <mxGeometry x="60" width="190" height="30" as="geometry" />
        </mxCell>
        <mxCell id="E_0I6TQ6m_T47jUmdcO8-39" value="width int NOT NULL" style="shape=partialRectangle;overflow=hidden;connectable=0;fillColor=none;top=0;left=0;bottom=0;right=0;align=left;spacingLeft=6;" vertex="1" parent="E_0I6TQ6m_T47jUmdcO8-45">
          <mxGeometry x="60" y="120" width="220" height="30" as="geometry" />
        </mxCell>
        <mxCell id="E_0I6TQ6m_T47jUmdcO8-40" value="height int NOT NULL" style="shape=partialRectangle;overflow=hidden;connectable=0;fillColor=none;top=0;left=0;bottom=0;right=0;align=left;spacingLeft=6;" vertex="1" parent="E_0I6TQ6m_T47jUmdcO8-45">
          <mxGeometry x="60" y="150" width="220" height="30" as="geometry" />
        </mxCell>
        <mxCell id="E_0I6TQ6m_T47jUmdcO8-41" value="file_size int NOT NULL" style="shape=partialRectangle;overflow=hidden;connectable=0;fillColor=none;top=0;left=0;bottom=0;right=0;align=left;spacingLeft=6;" vertex="1" parent="E_0I6TQ6m_T47jUmdcO8-45">
          <mxGeometry x="60" y="180" width="220" height="30" as="geometry" />
        </mxCell>
        <mxCell id="E_0I6TQ6m_T47jUmdcO8-42" value="thumbnail varchar(?) NOT NULL" style="shape=partialRectangle;overflow=hidden;connectable=0;fillColor=none;top=0;left=0;bottom=0;right=0;align=left;spacingLeft=6;" vertex="1" parent="E_0I6TQ6m_T47jUmdcO8-45">
          <mxGeometry x="60" y="210" width="220" height="30" as="geometry" />
        </mxCell>
        <mxCell id="E_0I6TQ6m_T47jUmdcO8-57" value="Data" style="shape=table;startSize=30;container=1;collapsible=1;childLayout=tableLayout;fixedRows=1;rowLines=0;fontStyle=1;align=center;resizeLast=1;" vertex="1" parent="1">
          <mxGeometry x="390" y="250" width="280" height="150" as="geometry" />
        </mxCell>
        <mxCell id="E_0I6TQ6m_T47jUmdcO8-58" value="" style="shape=partialRectangle;collapsible=0;dropTarget=0;pointerEvents=0;fillColor=none;top=0;left=0;bottom=0;right=0;points=[[0,0.5],[1,0.5]];portConstraint=eastwest;" vertex="1" parent="E_0I6TQ6m_T47jUmdcO8-57">
          <mxGeometry y="30" width="280" height="30" as="geometry" />
        </mxCell>
        <mxCell id="E_0I6TQ6m_T47jUmdcO8-59" value="PK,FK1" style="shape=partialRectangle;connectable=0;fillColor=none;top=0;left=0;bottom=0;right=0;fontStyle=1;overflow=hidden;" vertex="1" parent="E_0I6TQ6m_T47jUmdcO8-58">
          <mxGeometry width="60" height="30" as="geometry" />
        </mxCell>
        <mxCell id="E_0I6TQ6m_T47jUmdcO8-60" value="data_id char(32) NOT NULL" style="shape=partialRectangle;connectable=0;fillColor=none;top=0;left=0;bottom=0;right=0;align=left;spacingLeft=6;fontStyle=5;overflow=hidden;" vertex="1" parent="E_0I6TQ6m_T47jUmdcO8-58">
          <mxGeometry x="60" width="220" height="30" as="geometry" />
        </mxCell>
        <mxCell id="E_0I6TQ6m_T47jUmdcO8-61" value="" style="shape=partialRectangle;collapsible=0;dropTarget=0;pointerEvents=0;fillColor=none;top=0;left=0;bottom=1;right=0;points=[[0,0.5],[1,0.5]];portConstraint=eastwest;" vertex="1" parent="E_0I6TQ6m_T47jUmdcO8-57">
          <mxGeometry y="60" width="280" height="30" as="geometry" />
        </mxCell>
        <mxCell id="E_0I6TQ6m_T47jUmdcO8-62" value="" style="shape=partialRectangle;connectable=0;fillColor=none;top=0;left=0;bottom=0;right=0;fontStyle=1;overflow=hidden;" vertex="1" parent="E_0I6TQ6m_T47jUmdcO8-61">
          <mxGeometry width="60" height="30" as="geometry" />
        </mxCell>
        <mxCell id="E_0I6TQ6m_T47jUmdcO8-63" value="data_type int NOT NULL" style="shape=partialRectangle;connectable=0;fillColor=none;top=0;left=0;bottom=0;right=0;align=left;spacingLeft=6;fontStyle=5;overflow=hidden;" vertex="1" parent="E_0I6TQ6m_T47jUmdcO8-61">
          <mxGeometry x="60" width="220" height="30" as="geometry" />
        </mxCell>
        <mxCell id="E_0I6TQ6m_T47jUmdcO8-64" value="" style="shape=partialRectangle;collapsible=0;dropTarget=0;pointerEvents=0;fillColor=none;top=0;left=0;bottom=0;right=0;points=[[0,0.5],[1,0.5]];portConstraint=eastwest;" vertex="1" parent="E_0I6TQ6m_T47jUmdcO8-57">
          <mxGeometry y="90" width="280" height="30" as="geometry" />
        </mxCell>
        <mxCell id="E_0I6TQ6m_T47jUmdcO8-65" value="FK2" style="shape=partialRectangle;connectable=0;fillColor=none;top=0;left=0;bottom=0;right=0;editable=1;overflow=hidden;" vertex="1" parent="E_0I6TQ6m_T47jUmdcO8-64">
          <mxGeometry width="60" height="30" as="geometry" />
        </mxCell>
        <mxCell id="E_0I6TQ6m_T47jUmdcO8-66" value="project_id char(32) NOT NULL" style="shape=partialRectangle;connectable=0;fillColor=none;top=0;left=0;bottom=0;right=0;align=left;spacingLeft=6;overflow=hidden;" vertex="1" parent="E_0I6TQ6m_T47jUmdcO8-64">
          <mxGeometry x="60" width="220" height="30" as="geometry" />
        </mxCell>
        <mxCell id="E_0I6TQ6m_T47jUmdcO8-153" value="" style="shape=partialRectangle;collapsible=0;dropTarget=0;pointerEvents=0;fillColor=none;top=0;left=0;bottom=0;right=0;points=[[0,0.5],[1,0.5]];portConstraint=eastwest;" vertex="1" parent="E_0I6TQ6m_T47jUmdcO8-57">
          <mxGeometry y="120" width="280" height="30" as="geometry" />
        </mxCell>
        <mxCell id="E_0I6TQ6m_T47jUmdcO8-154" value="FK3" style="shape=partialRectangle;connectable=0;fillColor=none;top=0;left=0;bottom=0;right=0;editable=1;overflow=hidden;" vertex="1" parent="E_0I6TQ6m_T47jUmdcO8-153">
          <mxGeometry width="60" height="30" as="geometry" />
        </mxCell>
        <mxCell id="E_0I6TQ6m_T47jUmdcO8-155" value="annotation_id char(32) NOT NULL" style="shape=partialRectangle;connectable=0;fillColor=none;top=0;left=0;bottom=0;right=0;align=left;spacingLeft=6;overflow=hidden;" vertex="1" parent="E_0I6TQ6m_T47jUmdcO8-153">
          <mxGeometry x="60" width="220" height="30" as="geometry" />
        </mxCell>
        <mxCell id="E_0I6TQ6m_T47jUmdcO8-76" style="edgeStyle=orthogonalEdgeStyle;orthogonalLoop=1;jettySize=auto;html=1;exitX=0;exitY=0.5;exitDx=0;exitDy=0;exitPerimeter=0;startArrow=none;startFill=0;endArrow=none;endFill=0;rounded=0;entryX=0.5;entryY=0;entryDx=0;entryDy=0;" edge="1" parent="1" source="E_0I6TQ6m_T47jUmdcO8-74" target="C-vyLk0tnHw3VtMMgP7b-13">
          <mxGeometry relative="1" as="geometry">
            <mxPoint x="150" y="570" as="targetPoint" />
          </mxGeometry>
        </mxCell>
        <mxCell id="E_0I6TQ6m_T47jUmdcO8-105" style="edgeStyle=orthogonalEdgeStyle;orthogonalLoop=1;jettySize=auto;html=1;entryX=0;entryY=0.5;entryDx=0;entryDy=0;startArrow=none;startFill=0;endArrow=none;endFill=0;rounded=0;exitX=1;exitY=0.5;exitDx=0;exitDy=0;exitPerimeter=0;" edge="1" parent="1" source="E_0I6TQ6m_T47jUmdcO8-74" target="E_0I6TQ6m_T47jUmdcO8-58">
          <mxGeometry relative="1" as="geometry">
            <Array as="points">
              <mxPoint x="320" y="440" />
              <mxPoint x="320" y="295" />
            </Array>
          </mxGeometry>
        </mxCell>
        <mxCell id="E_0I6TQ6m_T47jUmdcO8-74" value="" style="shape=singleArrow;whiteSpace=wrap;html=1;arrowWidth=0.4;arrowSize=0.4;fontStyle=1;startSize=30;rotation=-90;" vertex="1" parent="1">
          <mxGeometry x="490" y="450" width="80" height="60" as="geometry" />
        </mxCell>
        <mxCell id="E_0I6TQ6m_T47jUmdcO8-77" value="Annotation" style="shape=table;startSize=30;container=1;collapsible=1;childLayout=tableLayout;fixedRows=1;rowLines=0;fontStyle=1;align=center;resizeLast=1;" vertex="1" parent="1">
          <mxGeometry x="387.5" y="870" width="285" height="130" as="geometry" />
        </mxCell>
        <mxCell id="E_0I6TQ6m_T47jUmdcO8-78" value="" style="shape=partialRectangle;collapsible=0;dropTarget=0;pointerEvents=0;fillColor=none;top=0;left=0;bottom=0;right=0;points=[[0,0.5],[1,0.5]];portConstraint=eastwest;" vertex="1" parent="E_0I6TQ6m_T47jUmdcO8-77">
          <mxGeometry y="30" width="285" height="30" as="geometry" />
        </mxCell>
        <mxCell id="E_0I6TQ6m_T47jUmdcO8-79" value="PK,FK1" style="shape=partialRectangle;connectable=0;fillColor=none;top=0;left=0;bottom=0;right=0;fontStyle=1;overflow=hidden;" vertex="1" parent="E_0I6TQ6m_T47jUmdcO8-78">
          <mxGeometry width="60" height="30" as="geometry" />
        </mxCell>
        <mxCell id="E_0I6TQ6m_T47jUmdcO8-80" value="annotation_id char(32) NOT NULL" style="shape=partialRectangle;connectable=0;fillColor=none;top=0;left=0;bottom=0;right=0;align=left;spacingLeft=6;fontStyle=5;overflow=hidden;" vertex="1" parent="E_0I6TQ6m_T47jUmdcO8-78">
          <mxGeometry x="60" width="225" height="30" as="geometry" />
        </mxCell>
        <mxCell id="E_0I6TQ6m_T47jUmdcO8-81" value="" style="shape=partialRectangle;collapsible=0;dropTarget=0;pointerEvents=0;fillColor=none;top=0;left=0;bottom=1;right=0;points=[[0,0.5],[1,0.5]];portConstraint=eastwest;" vertex="1" parent="E_0I6TQ6m_T47jUmdcO8-77">
          <mxGeometry y="60" width="285" height="30" as="geometry" />
        </mxCell>
        <mxCell id="E_0I6TQ6m_T47jUmdcO8-82" value="PK,FK2" style="shape=partialRectangle;connectable=0;fillColor=none;top=0;left=0;bottom=0;right=0;fontStyle=1;overflow=hidden;" vertex="1" parent="E_0I6TQ6m_T47jUmdcO8-81">
          <mxGeometry width="60" height="30" as="geometry" />
        </mxCell>
        <mxCell id="E_0I6TQ6m_T47jUmdcO8-83" value="annotation_type int NOT NULL" style="shape=partialRectangle;connectable=0;fillColor=none;top=0;left=0;bottom=0;right=0;align=left;spacingLeft=6;fontStyle=5;overflow=hidden;" vertex="1" parent="E_0I6TQ6m_T47jUmdcO8-81">
          <mxGeometry x="60" width="225" height="30" as="geometry" />
        </mxCell>
        <mxCell id="E_0I6TQ6m_T47jUmdcO8-84" value="" style="shape=partialRectangle;collapsible=0;dropTarget=0;pointerEvents=0;fillColor=none;top=0;left=0;bottom=0;right=0;points=[[0,0.5],[1,0.5]];portConstraint=eastwest;" vertex="1" parent="E_0I6TQ6m_T47jUmdcO8-77">
          <mxGeometry y="90" width="285" height="30" as="geometry" />
        </mxCell>
        <mxCell id="E_0I6TQ6m_T47jUmdcO8-85" value="" style="shape=partialRectangle;connectable=0;fillColor=none;top=0;left=0;bottom=0;right=0;editable=1;overflow=hidden;" vertex="1" parent="E_0I6TQ6m_T47jUmdcO8-84">
          <mxGeometry width="60" height="30" as="geometry" />
        </mxCell>
        <mxCell id="E_0I6TQ6m_T47jUmdcO8-86" value="version_id char(32) NOT NULL" style="shape=partialRectangle;connectable=0;fillColor=none;top=0;left=0;bottom=0;right=0;align=left;spacingLeft=6;overflow=hidden;" vertex="1" parent="E_0I6TQ6m_T47jUmdcO8-84">
          <mxGeometry x="60" width="225" height="30" as="geometry" />
        </mxCell>
        <mxCell id="E_0I6TQ6m_T47jUmdcO8-90" value="" style="group" vertex="1" connectable="0" parent="1">
          <mxGeometry x="405" y="580" width="250" height="240" as="geometry" />
        </mxCell>
        <mxCell id="E_0I6TQ6m_T47jUmdcO8-91" value="Video" style="shape=table;startSize=30;container=1;collapsible=1;childLayout=tableLayout;fixedRows=1;rowLines=0;fontStyle=1;align=center;resizeLast=1;" vertex="1" parent="E_0I6TQ6m_T47jUmdcO8-90">
          <mxGeometry width="250" height="240" as="geometry" />
        </mxCell>
        <mxCell id="E_0I6TQ6m_T47jUmdcO8-92" value="" style="shape=partialRectangle;collapsible=0;dropTarget=0;pointerEvents=0;fillColor=none;points=[[0,0.5],[1,0.5]];portConstraint=eastwest;top=0;left=0;right=0;bottom=1;" vertex="1" parent="E_0I6TQ6m_T47jUmdcO8-91">
          <mxGeometry y="30" width="250" height="30" as="geometry" />
        </mxCell>
        <mxCell id="E_0I6TQ6m_T47jUmdcO8-93" value="PK" style="shape=partialRectangle;overflow=hidden;connectable=0;fillColor=none;top=0;left=0;bottom=0;right=0;fontStyle=1;" vertex="1" parent="E_0I6TQ6m_T47jUmdcO8-92">
          <mxGeometry width="30" height="30" as="geometry" />
        </mxCell>
        <mxCell id="E_0I6TQ6m_T47jUmdcO8-94" value="data_id char(32) NOT NULL" style="shape=partialRectangle;overflow=hidden;connectable=0;fillColor=none;top=0;left=0;bottom=0;right=0;align=left;spacingLeft=6;fontStyle=5;" vertex="1" parent="E_0I6TQ6m_T47jUmdcO8-92">
          <mxGeometry x="30" width="220" height="30" as="geometry" />
        </mxCell>
        <mxCell id="E_0I6TQ6m_T47jUmdcO8-95" value="" style="shape=partialRectangle;collapsible=0;dropTarget=0;pointerEvents=0;fillColor=none;points=[[0,0.5],[1,0.5]];portConstraint=eastwest;top=0;left=0;right=0;bottom=0;" vertex="1" parent="E_0I6TQ6m_T47jUmdcO8-91">
          <mxGeometry y="60" width="250" height="30" as="geometry" />
        </mxCell>
        <mxCell id="E_0I6TQ6m_T47jUmdcO8-96" value="FK1" style="shape=partialRectangle;overflow=hidden;connectable=0;fillColor=none;top=0;left=0;bottom=0;right=0;" vertex="1" parent="E_0I6TQ6m_T47jUmdcO8-95">
          <mxGeometry width="30" height="30" as="geometry" />
        </mxCell>
        <mxCell id="E_0I6TQ6m_T47jUmdcO8-97" value="" style="shape=partialRectangle;overflow=hidden;connectable=0;fillColor=none;top=0;left=0;bottom=0;right=0;align=left;spacingLeft=6;" vertex="1" parent="E_0I6TQ6m_T47jUmdcO8-95">
          <mxGeometry x="30" width="220" height="30" as="geometry" />
        </mxCell>
        <mxCell id="E_0I6TQ6m_T47jUmdcO8-98" value="" style="shape=partialRectangle;collapsible=0;dropTarget=0;pointerEvents=0;fillColor=none;points=[[0,0.5],[1,0.5]];portConstraint=eastwest;top=0;left=0;right=0;bottom=0;" vertex="1" parent="E_0I6TQ6m_T47jUmdcO8-91">
          <mxGeometry y="90" width="250" height="30" as="geometry" />
        </mxCell>
        <mxCell id="E_0I6TQ6m_T47jUmdcO8-99" value="" style="shape=partialRectangle;overflow=hidden;connectable=0;fillColor=none;top=0;left=0;bottom=0;right=0;" vertex="1" parent="E_0I6TQ6m_T47jUmdcO8-98">
          <mxGeometry width="30" height="30" as="geometry" />
        </mxCell>
        <mxCell id="E_0I6TQ6m_T47jUmdcO8-100" value="" style="shape=partialRectangle;overflow=hidden;connectable=0;fillColor=none;top=0;left=0;bottom=0;right=0;align=left;spacingLeft=6;" vertex="1" parent="E_0I6TQ6m_T47jUmdcO8-98">
          <mxGeometry x="30" width="220" height="30" as="geometry" />
        </mxCell>
        <mxCell id="E_0I6TQ6m_T47jUmdcO8-103" value="" style="shape=partialRectangle;overflow=hidden;connectable=0;fillColor=none;top=0;left=0;bottom=0;right=0;align=left;spacingLeft=6;" vertex="1" parent="E_0I6TQ6m_T47jUmdcO8-90">
          <mxGeometry x="30" y="180" width="220" height="30" as="geometry" />
        </mxCell>
        <mxCell id="E_0I6TQ6m_T47jUmdcO8-111" style="edgeStyle=orthogonalEdgeStyle;rounded=0;orthogonalLoop=1;jettySize=auto;html=1;exitX=0;exitY=0.5;exitDx=0;exitDy=0;entryX=1;entryY=0.5;entryDx=0;entryDy=0;startArrow=none;startFill=0;endArrow=none;endFill=0;strokeColor=#000000;" edge="1" parent="1" source="E_0I6TQ6m_T47jUmdcO8-64" target="C-vyLk0tnHw3VtMMgP7b-24">
          <mxGeometry relative="1" as="geometry" />
        </mxCell>
        <mxCell id="E_0I6TQ6m_T47jUmdcO8-112" style="edgeStyle=orthogonalEdgeStyle;rounded=0;orthogonalLoop=1;jettySize=auto;html=1;exitX=0;exitY=0.5;exitDx=0;exitDy=0;entryX=1;entryY=0.5;entryDx=0;entryDy=0;startArrow=none;startFill=0;endArrow=none;endFill=0;strokeColor=#000000;" edge="1" parent="1" source="C-vyLk0tnHw3VtMMgP7b-6" target="C-vyLk0tnHw3VtMMgP7b-24">
          <mxGeometry relative="1" as="geometry">
            <Array as="points">
              <mxPoint x="350" y="135" />
              <mxPoint x="350" y="105" />
            </Array>
          </mxGeometry>
        </mxCell>
        <mxCell id="E_0I6TQ6m_T47jUmdcO8-114" style="edgeStyle=orthogonalEdgeStyle;rounded=0;orthogonalLoop=1;jettySize=auto;html=1;exitX=0.5;exitY=0;exitDx=0;exitDy=0;entryX=0;entryY=0.5;entryDx=0;entryDy=0;entryPerimeter=0;startArrow=none;startFill=0;endArrow=none;endFill=0;strokeColor=#000000;" edge="1" parent="1" source="E_0I6TQ6m_T47jUmdcO8-91" target="E_0I6TQ6m_T47jUmdcO8-74">
          <mxGeometry relative="1" as="geometry" />
        </mxCell>
        <mxCell id="E_0I6TQ6m_T47jUmdcO8-125" style="edgeStyle=orthogonalEdgeStyle;rounded=0;orthogonalLoop=1;jettySize=auto;html=1;exitX=0.5;exitY=0;exitDx=0;exitDy=0;entryX=0;entryY=0.5;entryDx=0;entryDy=0;entryPerimeter=0;startArrow=none;startFill=0;endArrow=none;endFill=0;strokeColor=#000000;" edge="1" parent="1" source="E_0I6TQ6m_T47jUmdcO8-115" target="E_0I6TQ6m_T47jUmdcO8-74">
          <mxGeometry relative="1" as="geometry" />
        </mxCell>
        <mxCell id="E_0I6TQ6m_T47jUmdcO8-115" value="Audio" style="shape=table;startSize=30;container=1;collapsible=1;childLayout=tableLayout;fixedRows=1;rowLines=0;fontStyle=1;align=center;resizeLast=1;" vertex="1" parent="1">
          <mxGeometry x="730" y="580" width="250" height="240" as="geometry" />
        </mxCell>
        <mxCell id="E_0I6TQ6m_T47jUmdcO8-116" value="" style="shape=partialRectangle;collapsible=0;dropTarget=0;pointerEvents=0;fillColor=none;points=[[0,0.5],[1,0.5]];portConstraint=eastwest;top=0;left=0;right=0;bottom=1;" vertex="1" parent="E_0I6TQ6m_T47jUmdcO8-115">
          <mxGeometry y="30" width="250" height="30" as="geometry" />
        </mxCell>
        <mxCell id="E_0I6TQ6m_T47jUmdcO8-117" value="PK" style="shape=partialRectangle;overflow=hidden;connectable=0;fillColor=none;top=0;left=0;bottom=0;right=0;fontStyle=1;" vertex="1" parent="E_0I6TQ6m_T47jUmdcO8-116">
          <mxGeometry width="30" height="30" as="geometry" />
        </mxCell>
        <mxCell id="E_0I6TQ6m_T47jUmdcO8-118" value="image_id char(32) NOT NULL" style="shape=partialRectangle;overflow=hidden;connectable=0;fillColor=none;top=0;left=0;bottom=0;right=0;align=left;spacingLeft=6;fontStyle=5;" vertex="1" parent="E_0I6TQ6m_T47jUmdcO8-116">
          <mxGeometry x="30" width="220" height="30" as="geometry" />
        </mxCell>
        <mxCell id="E_0I6TQ6m_T47jUmdcO8-119" value="" style="shape=partialRectangle;collapsible=0;dropTarget=0;pointerEvents=0;fillColor=none;points=[[0,0.5],[1,0.5]];portConstraint=eastwest;top=0;left=0;right=0;bottom=0;" vertex="1" parent="E_0I6TQ6m_T47jUmdcO8-115">
          <mxGeometry y="60" width="250" height="30" as="geometry" />
        </mxCell>
        <mxCell id="E_0I6TQ6m_T47jUmdcO8-120" value="FK1" style="shape=partialRectangle;overflow=hidden;connectable=0;fillColor=none;top=0;left=0;bottom=0;right=0;" vertex="1" parent="E_0I6TQ6m_T47jUmdcO8-119">
          <mxGeometry width="30" height="30" as="geometry" />
        </mxCell>
        <mxCell id="E_0I6TQ6m_T47jUmdcO8-121" value="" style="shape=partialRectangle;overflow=hidden;connectable=0;fillColor=none;top=0;left=0;bottom=0;right=0;align=left;spacingLeft=6;" vertex="1" parent="E_0I6TQ6m_T47jUmdcO8-119">
          <mxGeometry x="30" width="220" height="30" as="geometry" />
        </mxCell>
        <mxCell id="E_0I6TQ6m_T47jUmdcO8-122" value="" style="shape=partialRectangle;collapsible=0;dropTarget=0;pointerEvents=0;fillColor=none;points=[[0,0.5],[1,0.5]];portConstraint=eastwest;top=0;left=0;right=0;bottom=0;" vertex="1" parent="E_0I6TQ6m_T47jUmdcO8-115">
          <mxGeometry y="90" width="250" height="30" as="geometry" />
        </mxCell>
        <mxCell id="E_0I6TQ6m_T47jUmdcO8-123" value="" style="shape=partialRectangle;overflow=hidden;connectable=0;fillColor=none;top=0;left=0;bottom=0;right=0;" vertex="1" parent="E_0I6TQ6m_T47jUmdcO8-122">
          <mxGeometry width="30" height="30" as="geometry" />
        </mxCell>
        <mxCell id="E_0I6TQ6m_T47jUmdcO8-124" value="" style="shape=partialRectangle;overflow=hidden;connectable=0;fillColor=none;top=0;left=0;bottom=0;right=0;align=left;spacingLeft=6;" vertex="1" parent="E_0I6TQ6m_T47jUmdcO8-122">
          <mxGeometry x="30" width="220" height="30" as="geometry" />
        </mxCell>
        <mxCell id="E_0I6TQ6m_T47jUmdcO8-136" style="edgeStyle=orthogonalEdgeStyle;rounded=0;orthogonalLoop=1;jettySize=auto;html=1;exitX=0.5;exitY=0;exitDx=0;exitDy=0;entryX=0;entryY=0.5;entryDx=0;entryDy=0;entryPerimeter=0;startArrow=none;startFill=0;endArrow=none;endFill=0;strokeColor=#000000;" edge="1" parent="1" source="E_0I6TQ6m_T47jUmdcO8-126" target="E_0I6TQ6m_T47jUmdcO8-74">
          <mxGeometry relative="1" as="geometry" />
        </mxCell>
        <mxCell id="E_0I6TQ6m_T47jUmdcO8-126" value="Tabular" style="shape=table;startSize=30;container=1;collapsible=1;childLayout=tableLayout;fixedRows=1;rowLines=0;fontStyle=1;align=center;resizeLast=1;" vertex="1" parent="1">
          <mxGeometry x="1100" y="580" width="250" height="240" as="geometry" />
        </mxCell>
        <mxCell id="E_0I6TQ6m_T47jUmdcO8-127" value="" style="shape=partialRectangle;collapsible=0;dropTarget=0;pointerEvents=0;fillColor=none;points=[[0,0.5],[1,0.5]];portConstraint=eastwest;top=0;left=0;right=0;bottom=1;" vertex="1" parent="E_0I6TQ6m_T47jUmdcO8-126">
          <mxGeometry y="30" width="250" height="30" as="geometry" />
        </mxCell>
        <mxCell id="E_0I6TQ6m_T47jUmdcO8-128" value="PK" style="shape=partialRectangle;overflow=hidden;connectable=0;fillColor=none;top=0;left=0;bottom=0;right=0;fontStyle=1;" vertex="1" parent="E_0I6TQ6m_T47jUmdcO8-127">
          <mxGeometry width="30" height="30" as="geometry" />
        </mxCell>
        <mxCell id="E_0I6TQ6m_T47jUmdcO8-129" value="image_id char(32) NOT NULL" style="shape=partialRectangle;overflow=hidden;connectable=0;fillColor=none;top=0;left=0;bottom=0;right=0;align=left;spacingLeft=6;fontStyle=5;" vertex="1" parent="E_0I6TQ6m_T47jUmdcO8-127">
          <mxGeometry x="30" width="220" height="30" as="geometry" />
        </mxCell>
        <mxCell id="E_0I6TQ6m_T47jUmdcO8-130" value="" style="shape=partialRectangle;collapsible=0;dropTarget=0;pointerEvents=0;fillColor=none;points=[[0,0.5],[1,0.5]];portConstraint=eastwest;top=0;left=0;right=0;bottom=0;" vertex="1" parent="E_0I6TQ6m_T47jUmdcO8-126">
          <mxGeometry y="60" width="250" height="30" as="geometry" />
        </mxCell>
        <mxCell id="E_0I6TQ6m_T47jUmdcO8-131" value="FK1" style="shape=partialRectangle;overflow=hidden;connectable=0;fillColor=none;top=0;left=0;bottom=0;right=0;" vertex="1" parent="E_0I6TQ6m_T47jUmdcO8-130">
          <mxGeometry width="30" height="30" as="geometry" />
        </mxCell>
        <mxCell id="E_0I6TQ6m_T47jUmdcO8-132" value="" style="shape=partialRectangle;overflow=hidden;connectable=0;fillColor=none;top=0;left=0;bottom=0;right=0;align=left;spacingLeft=6;" vertex="1" parent="E_0I6TQ6m_T47jUmdcO8-130">
          <mxGeometry x="30" width="220" height="30" as="geometry" />
        </mxCell>
        <mxCell id="E_0I6TQ6m_T47jUmdcO8-133" value="" style="shape=partialRectangle;collapsible=0;dropTarget=0;pointerEvents=0;fillColor=none;points=[[0,0.5],[1,0.5]];portConstraint=eastwest;top=0;left=0;right=0;bottom=0;" vertex="1" parent="E_0I6TQ6m_T47jUmdcO8-126">
          <mxGeometry y="90" width="250" height="30" as="geometry" />
        </mxCell>
        <mxCell id="E_0I6TQ6m_T47jUmdcO8-134" value="" style="shape=partialRectangle;overflow=hidden;connectable=0;fillColor=none;top=0;left=0;bottom=0;right=0;" vertex="1" parent="E_0I6TQ6m_T47jUmdcO8-133">
          <mxGeometry width="30" height="30" as="geometry" />
        </mxCell>
        <mxCell id="E_0I6TQ6m_T47jUmdcO8-135" value="" style="shape=partialRectangle;overflow=hidden;connectable=0;fillColor=none;top=0;left=0;bottom=0;right=0;align=left;spacingLeft=6;" vertex="1" parent="E_0I6TQ6m_T47jUmdcO8-133">
          <mxGeometry x="30" width="220" height="30" as="geometry" />
        </mxCell>
        <mxCell id="E_0I6TQ6m_T47jUmdcO8-156" style="edgeStyle=orthogonalEdgeStyle;rounded=0;orthogonalLoop=1;jettySize=auto;html=1;exitX=0;exitY=0.5;exitDx=0;exitDy=0;startArrow=none;startFill=0;endArrow=none;endFill=0;strokeColor=#000000;" edge="1" parent="1" source="E_0I6TQ6m_T47jUmdcO8-153" target="E_0I6TQ6m_T47jUmdcO8-77">
          <mxGeometry relative="1" as="geometry">
            <Array as="points">
              <mxPoint x="370" y="385" />
              <mxPoint x="370" y="840" />
              <mxPoint x="530" y="840" />
            </Array>
          </mxGeometry>
        </mxCell>
        <mxCell id="E_0I6TQ6m_T47jUmdcO8-158" style="edgeStyle=orthogonalEdgeStyle;rounded=0;orthogonalLoop=1;jettySize=auto;html=1;exitX=1;exitY=0.5;exitDx=0;exitDy=0;exitPerimeter=0;entryX=0;entryY=0.5;entryDx=0;entryDy=0;startArrow=none;startFill=0;endArrow=none;endFill=0;strokeColor=#000000;" edge="1" parent="1" source="E_0I6TQ6m_T47jUmdcO8-157" target="E_0I6TQ6m_T47jUmdcO8-78">
          <mxGeometry relative="1" as="geometry">
            <Array as="points">
              <mxPoint x="368" y="1020" />
              <mxPoint x="368" y="915" />
            </Array>
          </mxGeometry>
        </mxCell>
        <mxCell id="E_0I6TQ6m_T47jUmdcO8-159" style="edgeStyle=orthogonalEdgeStyle;rounded=0;orthogonalLoop=1;jettySize=auto;html=1;exitX=0;exitY=0.5;exitDx=0;exitDy=0;exitPerimeter=0;entryX=0.5;entryY=0;entryDx=0;entryDy=0;startArrow=none;startFill=0;endArrow=none;endFill=0;strokeColor=#000000;" edge="1" parent="1" source="E_0I6TQ6m_T47jUmdcO8-157" target="E_0I6TQ6m_T47jUmdcO8-11">
          <mxGeometry relative="1" as="geometry" />
        </mxCell>
        <mxCell id="E_0I6TQ6m_T47jUmdcO8-157" value="" style="shape=singleArrow;whiteSpace=wrap;html=1;arrowWidth=0.4;arrowSize=0.4;fontStyle=1;startSize=30;rotation=-90;" vertex="1" parent="1">
          <mxGeometry x="490" y="1030" width="80" height="60" as="geometry" />
        </mxCell>
        <mxCell id="E_0I6TQ6m_T47jUmdcO8-170" style="edgeStyle=orthogonalEdgeStyle;rounded=0;orthogonalLoop=1;jettySize=auto;html=1;exitX=0.5;exitY=0;exitDx=0;exitDy=0;entryX=0;entryY=0.5;entryDx=0;entryDy=0;entryPerimeter=0;startArrow=none;startFill=0;endArrow=none;endFill=0;strokeColor=#000000;" edge="1" parent="1" source="E_0I6TQ6m_T47jUmdcO8-160" target="E_0I6TQ6m_T47jUmdcO8-157">
          <mxGeometry relative="1" as="geometry" />
        </mxCell>
        <mxCell id="E_0I6TQ6m_T47jUmdcO8-160" value="Video_Annotation" style="shape=table;startSize=30;container=1;collapsible=1;childLayout=tableLayout;fixedRows=1;rowLines=0;fontStyle=1;align=center;resizeLast=1;" vertex="1" parent="1">
          <mxGeometry x="405" y="1150" width="250" height="160" as="geometry" />
        </mxCell>
        <mxCell id="E_0I6TQ6m_T47jUmdcO8-161" value="" style="shape=partialRectangle;collapsible=0;dropTarget=0;pointerEvents=0;fillColor=none;points=[[0,0.5],[1,0.5]];portConstraint=eastwest;top=0;left=0;right=0;bottom=1;" vertex="1" parent="E_0I6TQ6m_T47jUmdcO8-160">
          <mxGeometry y="30" width="250" height="60" as="geometry" />
        </mxCell>
        <mxCell id="E_0I6TQ6m_T47jUmdcO8-162" value="" style="shape=partialRectangle;overflow=hidden;connectable=0;fillColor=none;top=0;left=0;bottom=0;right=0;fontStyle=1;" vertex="1" parent="E_0I6TQ6m_T47jUmdcO8-161">
          <mxGeometry width="30" height="60" as="geometry" />
        </mxCell>
        <mxCell id="E_0I6TQ6m_T47jUmdcO8-163" value="" style="shape=partialRectangle;overflow=hidden;connectable=0;fillColor=none;top=0;left=0;bottom=0;right=0;align=left;spacingLeft=6;fontStyle=5;" vertex="1" parent="E_0I6TQ6m_T47jUmdcO8-161">
          <mxGeometry x="30" width="220" height="60" as="geometry" />
        </mxCell>
        <mxCell id="E_0I6TQ6m_T47jUmdcO8-164" value="" style="shape=partialRectangle;collapsible=0;dropTarget=0;pointerEvents=0;fillColor=none;points=[[0,0.5],[1,0.5]];portConstraint=eastwest;top=0;left=0;right=0;bottom=0;" vertex="1" parent="E_0I6TQ6m_T47jUmdcO8-160">
          <mxGeometry y="90" width="250" height="30" as="geometry" />
        </mxCell>
        <mxCell id="E_0I6TQ6m_T47jUmdcO8-165" value="FK1" style="shape=partialRectangle;overflow=hidden;connectable=0;fillColor=none;top=0;left=0;bottom=0;right=0;" vertex="1" parent="E_0I6TQ6m_T47jUmdcO8-164">
          <mxGeometry width="30" height="30" as="geometry" />
        </mxCell>
        <mxCell id="E_0I6TQ6m_T47jUmdcO8-166" value="order_id int NOT NULL" style="shape=partialRectangle;overflow=hidden;connectable=0;fillColor=none;top=0;left=0;bottom=0;right=0;align=left;spacingLeft=6;" vertex="1" parent="E_0I6TQ6m_T47jUmdcO8-164">
          <mxGeometry x="30" width="220" height="30" as="geometry" />
        </mxCell>
        <mxCell id="E_0I6TQ6m_T47jUmdcO8-167" value="" style="shape=partialRectangle;collapsible=0;dropTarget=0;pointerEvents=0;fillColor=none;points=[[0,0.5],[1,0.5]];portConstraint=eastwest;top=0;left=0;right=0;bottom=0;" vertex="1" parent="E_0I6TQ6m_T47jUmdcO8-160">
          <mxGeometry y="120" width="250" height="30" as="geometry" />
        </mxCell>
        <mxCell id="E_0I6TQ6m_T47jUmdcO8-168" value="" style="shape=partialRectangle;overflow=hidden;connectable=0;fillColor=none;top=0;left=0;bottom=0;right=0;" vertex="1" parent="E_0I6TQ6m_T47jUmdcO8-167">
          <mxGeometry width="30" height="30" as="geometry" />
        </mxCell>
        <mxCell id="E_0I6TQ6m_T47jUmdcO8-169" value="shipment_date date NOT NULL" style="shape=partialRectangle;overflow=hidden;connectable=0;fillColor=none;top=0;left=0;bottom=0;right=0;align=left;spacingLeft=6;" vertex="1" parent="E_0I6TQ6m_T47jUmdcO8-167">
          <mxGeometry x="30" width="220" height="30" as="geometry" />
        </mxCell>
        <mxCell id="E_0I6TQ6m_T47jUmdcO8-172" style="edgeStyle=orthogonalEdgeStyle;rounded=0;orthogonalLoop=1;jettySize=auto;html=1;exitX=1;exitY=0.5;exitDx=0;exitDy=0;entryX=1;entryY=0.5;entryDx=0;entryDy=0;startArrow=none;startFill=0;endArrow=none;endFill=0;strokeColor=#000000;" edge="1" parent="1" source="E_0I6TQ6m_T47jUmdcO8-84" target="C-vyLk0tnHw3VtMMgP7b-3">
          <mxGeometry relative="1" as="geometry" />
        </mxCell>
        <mxCell id="E_0I6TQ6m_T47jUmdcO8-173" value="User" style="shape=table;startSize=30;container=1;collapsible=1;childLayout=tableLayout;fixedRows=1;rowLines=0;fontStyle=1;align=center;resizeLast=1;" vertex="1" parent="1">
          <mxGeometry x="-500" y="65" width="220" height="100" as="geometry" />
        </mxCell>
        <mxCell id="E_0I6TQ6m_T47jUmdcO8-174" value="" style="shape=partialRectangle;collapsible=0;dropTarget=0;pointerEvents=0;fillColor=none;top=0;left=0;bottom=1;right=0;points=[[0,0.5],[1,0.5]];portConstraint=eastwest;" vertex="1" parent="E_0I6TQ6m_T47jUmdcO8-173">
          <mxGeometry y="30" width="220" height="30" as="geometry" />
        </mxCell>
        <mxCell id="E_0I6TQ6m_T47jUmdcO8-175" value="PK" style="shape=partialRectangle;connectable=0;fillColor=none;top=0;left=0;bottom=0;right=0;fontStyle=1;overflow=hidden;" vertex="1" parent="E_0I6TQ6m_T47jUmdcO8-174">
          <mxGeometry width="30" height="30" as="geometry" />
        </mxCell>
        <mxCell id="E_0I6TQ6m_T47jUmdcO8-176" value="user_id char(32) NOT NULL" style="shape=partialRectangle;connectable=0;fillColor=none;top=0;left=0;bottom=0;right=0;align=left;spacingLeft=6;fontStyle=5;overflow=hidden;" vertex="1" parent="E_0I6TQ6m_T47jUmdcO8-174">
          <mxGeometry x="30" width="190" height="30" as="geometry" />
        </mxCell>
        <mxCell id="E_0I6TQ6m_T47jUmdcO8-177" value="" style="shape=partialRectangle;collapsible=0;dropTarget=0;pointerEvents=0;fillColor=none;top=0;left=0;bottom=0;right=0;points=[[0,0.5],[1,0.5]];portConstraint=eastwest;" vertex="1" parent="E_0I6TQ6m_T47jUmdcO8-173">
          <mxGeometry y="60" width="220" height="30" as="geometry" />
        </mxCell>
        <mxCell id="E_0I6TQ6m_T47jUmdcO8-178" value="" style="shape=partialRectangle;connectable=0;fillColor=none;top=0;left=0;bottom=0;right=0;editable=1;overflow=hidden;" vertex="1" parent="E_0I6TQ6m_T47jUmdcO8-177">
          <mxGeometry width="30" height="30" as="geometry" />
        </mxCell>
        <mxCell id="E_0I6TQ6m_T47jUmdcO8-179" value="password varchar(30) NOT NULL" style="shape=partialRectangle;connectable=0;fillColor=none;top=0;left=0;bottom=0;right=0;align=left;spacingLeft=6;overflow=hidden;" vertex="1" parent="E_0I6TQ6m_T47jUmdcO8-177">
          <mxGeometry x="30" width="190" height="30" as="geometry" />
        </mxCell>
        <mxCell id="E_0I6TQ6m_T47jUmdcO8-187" style="edgeStyle=orthogonalEdgeStyle;rounded=0;orthogonalLoop=1;jettySize=auto;html=1;entryX=0;entryY=0.5;entryDx=0;entryDy=0;startArrow=none;startFill=0;endArrow=none;endFill=0;strokeColor=#000000;" edge="1" parent="1" source="E_0I6TQ6m_T47jUmdcO8-186" target="E_0I6TQ6m_T47jUmdcO8-174">
          <mxGeometry relative="1" as="geometry">
            <Array as="points">
              <mxPoint x="-520" y="210" />
              <mxPoint x="-520" y="110" />
            </Array>
          </mxGeometry>
        </mxCell>
        <mxCell id="E_0I6TQ6m_T47jUmdcO8-186" value="" style="shape=singleArrow;whiteSpace=wrap;html=1;arrowWidth=0.4;arrowSize=0.4;fontStyle=1;startSize=30;rotation=-90;" vertex="1" parent="1">
          <mxGeometry x="-440" y="220" width="80" height="60" as="geometry" />
        </mxCell>
        <mxCell id="E_0I6TQ6m_T47jUmdcO8-202" style="edgeStyle=orthogonalEdgeStyle;rounded=0;orthogonalLoop=1;jettySize=auto;html=1;exitX=0.5;exitY=0;exitDx=0;exitDy=0;entryX=0;entryY=0.5;entryDx=0;entryDy=0;entryPerimeter=0;startArrow=none;startFill=0;endArrow=none;endFill=0;strokeColor=#000000;" edge="1" parent="1" source="E_0I6TQ6m_T47jUmdcO8-188" target="E_0I6TQ6m_T47jUmdcO8-186">
          <mxGeometry relative="1" as="geometry" />
        </mxCell>
        <mxCell id="E_0I6TQ6m_T47jUmdcO8-188" value="Main User" style="shape=table;startSize=30;container=1;collapsible=1;childLayout=tableLayout;fixedRows=1;rowLines=0;fontStyle=1;align=center;resizeLast=1;" vertex="1" parent="1">
          <mxGeometry x="-670" y="330" width="220" height="70" as="geometry" />
        </mxCell>
        <mxCell id="E_0I6TQ6m_T47jUmdcO8-192" value="" style="shape=partialRectangle;collapsible=0;dropTarget=0;pointerEvents=0;fillColor=none;top=0;left=0;bottom=0;right=0;points=[[0,0.5],[1,0.5]];portConstraint=eastwest;" vertex="1" parent="E_0I6TQ6m_T47jUmdcO8-188">
          <mxGeometry y="30" width="220" height="30" as="geometry" />
        </mxCell>
        <mxCell id="E_0I6TQ6m_T47jUmdcO8-193" value="" style="shape=partialRectangle;connectable=0;fillColor=none;top=0;left=0;bottom=0;right=0;editable=1;overflow=hidden;" vertex="1" parent="E_0I6TQ6m_T47jUmdcO8-192">
          <mxGeometry width="30" height="30" as="geometry" />
        </mxCell>
        <mxCell id="E_0I6TQ6m_T47jUmdcO8-194" value="password varchar(30) NOT NULL" style="shape=partialRectangle;connectable=0;fillColor=none;top=0;left=0;bottom=0;right=0;align=left;spacingLeft=6;overflow=hidden;" vertex="1" parent="E_0I6TQ6m_T47jUmdcO8-192">
          <mxGeometry x="30" width="190" height="30" as="geometry" />
        </mxCell>
        <mxCell id="E_0I6TQ6m_T47jUmdcO8-203" style="edgeStyle=orthogonalEdgeStyle;rounded=0;orthogonalLoop=1;jettySize=auto;html=1;exitX=0.5;exitY=0;exitDx=0;exitDy=0;startArrow=none;startFill=0;endArrow=none;endFill=0;strokeColor=#000000;" edge="1" parent="1" source="E_0I6TQ6m_T47jUmdcO8-195">
          <mxGeometry relative="1" as="geometry">
            <mxPoint x="-400" y="290" as="targetPoint" />
          </mxGeometry>
        </mxCell>
        <mxCell id="E_0I6TQ6m_T47jUmdcO8-195" value="Sub User" style="shape=table;startSize=30;container=1;collapsible=1;childLayout=tableLayout;fixedRows=1;rowLines=0;fontStyle=1;align=center;resizeLast=1;" vertex="1" parent="1">
          <mxGeometry x="-360" y="330" width="220" height="70" as="geometry" />
        </mxCell>
        <mxCell id="E_0I6TQ6m_T47jUmdcO8-199" value="" style="shape=partialRectangle;collapsible=0;dropTarget=0;pointerEvents=0;fillColor=none;top=0;left=0;bottom=0;right=0;points=[[0,0.5],[1,0.5]];portConstraint=eastwest;" vertex="1" parent="E_0I6TQ6m_T47jUmdcO8-195">
          <mxGeometry y="30" width="220" height="30" as="geometry" />
        </mxCell>
        <mxCell id="E_0I6TQ6m_T47jUmdcO8-200" value="FK1" style="shape=partialRectangle;connectable=0;fillColor=none;top=0;left=0;bottom=0;right=0;editable=1;overflow=hidden;" vertex="1" parent="E_0I6TQ6m_T47jUmdcO8-199">
          <mxGeometry width="30" height="30" as="geometry" />
        </mxCell>
        <mxCell id="E_0I6TQ6m_T47jUmdcO8-201" value=" main_id char(32) NOT NULL" style="shape=partialRectangle;connectable=0;fillColor=none;top=0;left=0;bottom=0;right=0;align=left;spacingLeft=6;overflow=hidden;" vertex="1" parent="E_0I6TQ6m_T47jUmdcO8-199">
          <mxGeometry x="30" width="190" height="30" as="geometry" />
        </mxCell>
        <mxCell id="E_0I6TQ6m_T47jUmdcO8-204" style="edgeStyle=orthogonalEdgeStyle;rounded=0;orthogonalLoop=1;jettySize=auto;html=1;exitX=1;exitY=0.5;exitDx=0;exitDy=0;entryX=1;entryY=0.5;entryDx=0;entryDy=0;startArrow=none;startFill=0;endArrow=none;endFill=0;strokeColor=#000000;" edge="1" parent="1" source="E_0I6TQ6m_T47jUmdcO8-199" target="E_0I6TQ6m_T47jUmdcO8-174">
          <mxGeometry relative="1" as="geometry" />
        </mxCell>
        <mxCell id="E_0I6TQ6m_T47jUmdcO8-208" style="edgeStyle=orthogonalEdgeStyle;rounded=0;orthogonalLoop=1;jettySize=auto;html=1;startArrow=none;startFill=0;endArrow=none;endFill=0;strokeColor=#000000;" edge="1" parent="1" source="E_0I6TQ6m_T47jUmdcO8-205">
          <mxGeometry relative="1" as="geometry">
            <mxPoint x="-280" y="110" as="targetPoint" />
            <Array as="points">
              <mxPoint x="-70" y="345" />
              <mxPoint x="-70" y="110" />
            </Array>
          </mxGeometry>
        </mxCell>
        <mxCell id="E_0I6TQ6m_T47jUmdcO8-205" value="" style="shape=partialRectangle;collapsible=0;dropTarget=0;pointerEvents=0;fillColor=none;points=[[0,0.5],[1,0.5]];portConstraint=eastwest;top=0;left=0;right=0;bottom=0;" vertex="1" parent="1">
          <mxGeometry x="30" y="330" width="250" height="30" as="geometry" />
        </mxCell>
        <mxCell id="E_0I6TQ6m_T47jUmdcO8-206" value="FK1" style="shape=partialRectangle;overflow=hidden;connectable=0;fillColor=none;top=0;left=0;bottom=0;right=0;" vertex="1" parent="E_0I6TQ6m_T47jUmdcO8-205">
          <mxGeometry width="30" height="30" as="geometry" />
        </mxCell>
        <mxCell id="E_0I6TQ6m_T47jUmdcO8-207" value="user_id char(32) NOT NULL" style="shape=partialRectangle;overflow=hidden;connectable=0;fillColor=none;top=0;left=0;bottom=0;right=0;align=left;spacingLeft=6;" vertex="1" parent="E_0I6TQ6m_T47jUmdcO8-205">
          <mxGeometry x="30" width="220" height="30" as="geometry" />
        </mxCell>
      </root>
    </mxGraphModel>
  </diagram>
</mxfile>
